<?xml version="1.0" encoding="utf-8"?>
<!-- Generator: Adobe Illustrator 26.5.0, SVG Export Plug-In . SVG Version: 6.00 Build 0)  -->
<svg version="1.1" id="Layer_1" xmlns="http://www.w3.org/2000/svg" xmlns:xlink="http://www.w3.org/1999/xlink" x="0px" y="0px"
	 viewBox="0 0 256 256" style="enable-background:new 0 0 256 256;" xml:space="preserve">
<style type="text/css">
	.st0{fill:#94A3B8;}
</style>
<path class="st0" d="M251.08,250.65c-1.91,4.18-5.22,5.36-9.68,5.35c-61.21-0.1-122.41-0.06-183.62-0.06c-6.6,0-9.09-2.51-9.1-9.15
	c0-6.47,0-12.95,0-19.69h2.99c49.03,0,98.06-0.04,147.09,0.05c7.15,0.01,13.06-2.31,18.17-7.26c14.02-13.58,24.23-29.71,32.19-47.39
	c0.62-1.37,1.31-2.7,1.96-4.05v82.22V250.65z"/>
<path class="st0" d="M251.08,82.85H48.89c-0.08-0.65-0.19-1.18-0.19-1.71c-0.01-6.49-0.03-12.98,0-19.47
	c0.02-4.71,2.95-7.65,7.65-7.67c10.89-0.03,21.79,0,32.68,0c0.87,0,1.74,0,2.93,0c0-2.35-0.02-4.56,0-6.77
	c0.05-4.49,3.03-7.65,7.2-7.65c4.16,0,7.15,3.15,7.21,7.64c0.03,2.15,0,4.3,0,6.62h36.06c0-2.25-0.02-4.47,0-6.69
	c0.06-4.46,3.1-7.61,7.27-7.57c4.08,0.04,7.05,3.13,7.13,7.48c0.04,2.23,0,4.45,0,6.81h36.54c0-2.14-0.02-4.34,0-6.55
	c0.04-4.53,2.95-7.69,7.11-7.74c4.27-0.05,7.26,3.12,7.31,7.79c0.02,2.08,0,4.16,0,6.63c0.91,0,1.75,0,2.59,0
	c10.41,0,20.83,0.15,31.24-0.07c4.43-0.09,7.61,1.25,9.44,5.36v23.56L251.08,82.85z"/>
<path class="st0" d="M250.76,97.44c-0.46,16.56-2.84,32.59-7.45,48.25c-6.57,22.33-16.86,42.67-32.66,59.98
	c-0.05,0.06-0.11,0.11-0.16,0.18c-3.94,5.11-8.84,7-15.55,6.97c-60.48-0.27-120.95-0.17-181.43-0.13c-3.19,0-5.87-0.76-7.57-3.65
	c-1.71-2.9-1.27-6.31,1.26-8.8c21.18-20.79,32.56-46.6,38.04-75.27c1.6-8.38,2.06-16.98,3.04-25.48c0.07-0.63,0.13-1.26,0.21-2.05
	C48.49,97.44,250.76,97.44,250.76,97.44z"/>
</svg>
