<?xml version="1.0" encoding="utf-8"?>
<!-- Generator: Adobe Illustrator 26.5.0, SVG Export Plug-In . SVG Version: 6.00 Build 0)  -->
<svg version="1.1" id="Layer_1" xmlns="http://www.w3.org/2000/svg" xmlns:xlink="http://www.w3.org/1999/xlink" x="0px" y="0px"
	 viewBox="0 0 241 276.3" style="enable-background:new 0 0 241 276.3;" xml:space="preserve">
<style type="text/css">
	.st0{fill:#94A3B8;}
</style>
<g id="Page-1">
	<path id="Path_3_" class="st0" d="M213.35,219.23c-6.03,0-11.14,4.2-12.42,10.04L153,227c0.18-0.91,0.27-1.83,0.27-2.74
		c0-1.64-0.27-3.29-0.73-4.93l17.44-10.04c4.29,5.3,12.05,6.39,17.62,2.37c5.57-4.02,7.03-11.69,3.29-17.44
		c-3.74-5.75-11.32-7.58-17.26-4.2c-5.93,3.38-8.22,10.87-5.11,16.98l-16.89,9.77c-4.02-8.49-13.97-12.33-22.64-8.77
		s-13.06,13.33-9.95,22.19l-31.41,7.58c-0.18-4.29-2.01-8.31-5.02-11.41l5.66-7.85c6.39,2.19,13.42-1,15.98-7.3
		c2.56-6.3-0.27-13.51-6.39-16.34c-6.12-2.92-13.51-0.46-16.71,5.48s-1.19,13.42,4.57,16.98l-5.2,7.21
		c-3.65-2.74-8.31-3.93-12.87-3.38l-5.39-30.77c6.76-1.46,11.96-6.76,13.42-13.42c1.46-6.76-1.1-13.7-6.57-17.8
		c-5.48-4.2-12.87-4.75-18.9-1.55l-13.6-26.57c2.92-1.46,5.3-3.74,7.03-6.48l11.32,3.01c-0.09,0.64-0.18,1.19-0.18,1.83
		c0,6.57,5.02,12.14,11.6,12.78s12.6-3.83,13.79-10.41s-2.74-12.87-9.13-14.61c-6.39-1.83-13.06,1.55-15.43,7.76l-10.68-2.83
		c1.46-3.47,1.73-7.3,0.82-10.96l31.5-14.52c5.84,7.3,16.43,8.86,24.1,3.38s9.68-15.98,4.57-23.83l20.09-19.63
		c2.47,1.55,5.3,2.56,8.13,2.74v8.67c-6.67,0.73-11.69,6.57-11.32,13.33c0.37,6.76,5.93,12.05,12.69,12.05s12.33-5.3,12.69-12.05
		c0.37-6.76-4.57-12.6-11.32-13.33v-8.67c2.56-0.18,4.93-0.91,7.12-2.1l22,25.11c-5.11,6.76-4.75,16.16,0.82,22.46
		c5.66,6.3,14.97,7.76,22.28,3.38c7.3-4.38,10.41-13.24,7.58-21.18l6.85-3.83c4.38,5.11,11.96,6.03,17.35,1.92
		c5.39-4.02,6.67-11.6,2.92-17.17c-3.74-5.57-11.23-7.3-16.98-3.83c-5.75,3.47-7.85,10.77-4.75,16.8l-6.48,3.65
		c-2.65-4.84-7.4-8.13-12.78-8.95c-5.39-0.82-10.96,0.91-14.88,4.75l-21.55-24.56c2.1-1.64,3.83-3.83,5.02-6.21l18.9,3.1
		c1.46,6.57,7.85,10.87,14.43,9.68c6.67-1.1,11.23-7.21,10.5-13.88c-0.73-6.67-6.57-11.69-13.24-11.32
		c-6.76,0.37-11.96,5.84-12.05,12.6l-17.53-2.92c2.47-8.4-1.55-17.35-9.5-21.09c-7.94-3.74-17.35-1-22.19,6.3
		s-3.56,17.07,3.01,22.92l-19.54,19.08c-3.01-3.47-7.3-5.66-11.87-6.03V54.61c6.67-0.73,11.69-6.57,11.32-13.33
		c-0.37-6.76-5.84-11.96-12.6-11.96s-12.33,5.3-12.69,12.05c-0.37,6.76,4.57,12.6,11.32,13.33v13.24
		c-6.03,0.46-11.41,4.02-14.24,9.31c-2.83,5.39-2.74,11.78,0.27,17.07l-30.68,14.06c-1.1-2.65-2.83-4.93-5.02-6.76l11.96-21.55
		c1.1,0.27,2.1,0.46,3.2,0.46c6.48,0,11.87-4.84,12.69-11.23s-3.38-12.33-9.59-13.88c-6.3-1.55-12.69,1.83-14.97,7.85
		c-2.28,6.03,0.37,12.78,6.03,15.8l-11.6,21c-7.03-4.2-15.89-3.01-21.64,2.83c-5.66,5.84-6.67,14.7-2.37,21.64
		s12.69,10.04,20.45,7.58l13.79,26.93c-3.47,2.56-5.93,6.39-6.76,10.59l-10.04-2.92c0.27-1,0.37-2.1,0.37-3.1
		c0-6.48-4.84-11.87-11.23-12.6c-6.39-0.73-12.33,3.38-13.88,9.68s1.92,12.69,8.03,14.88c6.03,2.19,12.78-0.46,15.7-6.21l10.68,3.1
		c0,0.27,0,0.55,0,0.82c0,6.03,3.01,11.6,8.13,14.79l-6.85,8.95c-5.02-4.47-12.69-4.2-17.44,0.64s-4.93,12.42-0.37,17.44
		s12.14,5.57,17.44,1.28s6.21-11.87,2.28-17.35l7.4-9.68c2.19,1,4.66,1.46,7.12,1.46c0.37,0,0.73,0,1.1-0.09l5.48,30.95
		c-7.3,2.19-12.42,8.86-12.69,16.43c-0.18,7.67,4.57,14.52,11.78,17.07c7.21,2.56,15.25,0.18,19.9-5.93l25.57,11.41
		c-0.18,0.91-0.37,1.92-0.37,2.83c0,6.48,4.84,11.96,11.32,12.69s12.42-3.47,13.88-9.77c1.46-6.3-2.1-12.69-8.22-14.88
		c-6.12-2.19-12.87,0.64-15.7,6.48L85.62,246.9c1.1-2.01,1.83-4.2,2.01-6.48l32.5-7.94c2.47,4.57,6.85,7.76,11.96,8.86
		c5.11,1,10.41-0.27,14.43-3.47l12.14,10.5c-2.83,6.21-0.37,13.51,5.66,16.62c6.03,3.2,13.42,1.1,16.89-4.75
		c3.47-5.84,1.83-13.33-3.74-17.17c-5.66-3.83-13.24-2.56-17.35,2.83l-11.6-9.95c1.73-1.83,3.01-4.11,3.83-6.48l48.3,2.37
		c0.09,7.03,5.75,12.6,12.78,12.6s12.69-5.75,12.6-12.69C226.04,224.9,220.38,219.23,213.35,219.23L213.35,219.23z"/>
</g>
</svg>
