<?xml version="1.0" encoding="utf-8"?>
<!-- Generator: Adobe Illustrator 26.5.0, SVG Export Plug-In . SVG Version: 6.00 Build 0)  -->
<svg version="1.1" id="Layer_1" xmlns="http://www.w3.org/2000/svg" xmlns:xlink="http://www.w3.org/1999/xlink" x="0px" y="0px"
	 viewBox="0 0 32 32" style="enable-background:new 0 0 32 32;" xml:space="preserve">
<style type="text/css">
	.st0{fill:#ef4444;}
</style>
<path class="st0" d="M12.88,4.84c-0.07-0.64-0.27-0.97-0.76-1.27c-0.76-0.46-0.85-1.46-0.27-2.1c0.53-0.59,1.45-0.62,2.03-0.08
	c0.62,0.6,0.64,1.65-0.11,2.1c-0.83,0.5-0.61,1.18-0.54,1.84c0.06,0.52,1.03,0.79,1.42,0.42c0.66-0.63,1.31-1.28,1.92-1.96
	c0.15-0.17,0.19-0.54,0.12-0.76c-0.43-1.34,0.04-2.5,1.22-2.9c1.2-0.41,2.27,0.25,2.74,1.65c0.08,0.22,0.35,0.46,0.58,0.53
	c0.46,0.15,0.95,0.24,1.43,0.24c0.3,0,0.67-0.11,0.89-0.31c0.55-0.5,1.13-0.64,1.77-0.32c0.59,0.29,0.85,0.83,0.73,1.48
	c-0.12,0.64-0.54,1.06-1.2,1.14c-0.73,0.09-1.2-0.26-1.55-0.91c-0.14-0.25-0.45-0.48-0.73-0.58c-0.48-0.16-1-0.25-1.5-0.27
	c-0.23-0.01-0.54,0.2-0.66,0.4c-0.1,0.16-0.05,0.54,0.08,0.69c0.75,0.91,1.53,1.81,2.35,2.66c0.16,0.16,0.58,0.2,0.83,0.13
	c0.71-0.2,1.33-0.09,1.92,0.31c0.74,0.5,1.59,0.1,1.69-0.81c0.1-0.97,0.87-1.66,1.67-1.36c0.44,0.16,0.93,0.62,1.06,1.05
	c0.11,0.39-0.11,1.08-0.43,1.33c-0.35,0.27-1.02,0.37-1.46,0.24c-1.11-0.33-1.7,0.01-1.7,1.19c0,0.89-0.48,1.67-1.27,1.97
	c-0.83,0.32-1.59,0.18-2.24-0.43c-0.63-0.59-0.86-1.49-0.46-2.29c0.27-0.54,0.17-0.87-0.21-1.27c-0.67-0.7-1.32-1.42-1.91-2.18
	c-0.41-0.52-0.97-0.62-1.25-0.15c-0.22,0.37,0.02,1.01,0.09,1.53c0.01,0.08,0.23,0.12,0.33,0.2c0.72,0.53,0.83,1.49,0.25,2.12
	c-0.53,0.58-1.46,0.61-2.03,0.06c-0.62-0.6-0.59-1.6,0.13-2.12c0.42-0.3,0.62-0.59,0.6-1.11c-0.02-0.46-0.16-0.72-0.61-0.91
	c-0.46-0.19-0.75-0.11-1.05,0.24c-0.36,0.4-0.73,0.79-1.13,1.15c-0.61,0.54-1.04,1.02-0.6,1.97c0.34,0.73-0.19,1.68-0.91,2.14
	c-0.76,0.48-1.72,0.48-2.4-0.15c-0.46-0.43-0.82-0.45-1.35-0.18c-0.89,0.45-1.82,0.8-2.7,1.27c-0.3,0.16-0.57,0.49-0.69,0.81
	c-0.07,0.17,0.16,0.6,0.35,0.68c0.4,0.17,0.82,0.48,1.34,0.05c0.31-0.26,0.82-0.42,1.23-0.4c0.7,0.04,1.19,0.72,1.17,1.41
	c-0.02,0.66-0.52,1.25-1.17,1.35c-0.75,0.12-1.46-0.26-1.59-1.02c-0.12-0.69-0.6-0.83-1.08-0.86c-0.29-0.02-0.66,0.24-0.87,0.49
	c-0.14,0.16-0.15,0.55-0.06,0.77c0.43,0.95,0.9,1.9,1.42,2.81c0.12,0.22,0.48,0.41,0.74,0.42c1.17,0.06,1.89,0.49,2.21,1.41
	c0.32,0.94,0,1.74-0.95,2.52c-0.18,0.15-0.34,0.49-0.31,0.72c0.16,1.14,0.35,2.29,0.61,3.41c0.05,0.22,0.39,0.48,0.64,0.54
	c0.25,0.05,0.63-0.05,0.8-0.23c0.36-0.38,0.66-0.79,0.31-1.42c-0.34-0.62-0.13-1.31,0.47-1.6c0.44-0.21,1.1-0.23,1.56-0.06
	c0.61,0.22,0.78,0.87,0.62,1.51c-0.17,0.68-0.67,1.12-1.34,1.06c-0.67-0.06-0.96,0.27-1.16,0.74c-0.1,0.24-0.13,0.65,0.01,0.84
	c0.16,0.23,0.56,0.46,0.81,0.41c1.14-0.2,2.27-0.47,3.38-0.78c0.24-0.07,0.5-0.38,0.57-0.63c0.45-1.71,1.9-2.28,3.41-1.32
	c0.11,0.07,0.22,0.18,0.34,0.2c0.57,0.11,2.39-1.33,2.46-1.94c0.09-0.88,0.76-1.42,1.6-1.31c0.76,0.1,1.3,0.78,1.22,1.54
	c-0.1,0.94-1.09,1.55-1.98,1.11c-0.53-0.27-0.89-0.17-1.32,0.11c-0.43,0.28-0.89,0.5-1.31,0.8c-0.16,0.12-0.32,0.4-0.29,0.57
	c0.03,0.17,0.31,0.39,0.49,0.4c1.61,0.1,3.22,0.18,4.83,0.22c0.2,0,0.45-0.23,0.59-0.42c0.54-0.73,1.2-1.02,1.93-0.79
	c0.73,0.23,1.2,0.9,1.17,1.65c-0.03,0.72-0.54,1.35-1.23,1.53c-0.78,0.2-1.46-0.17-1.95-0.94c-0.16-0.25-0.49-0.5-0.77-0.53
	c-1.47-0.12-2.95-0.18-4.43-0.21c-0.25,0-0.63,0.21-0.72,0.42c-0.08,0.2,0.07,0.58,0.24,0.79c0.25,0.31,0.57,0.58,0.91,0.79
	c0.22,0.13,0.55,0.22,0.79,0.17c0.74-0.17,1.35-0.06,1.76,0.61c0.34,0.56,0.29,1.15-0.15,1.64c-0.44,0.49-0.99,0.65-1.61,0.37
	c-0.71-0.32-0.94-0.89-0.85-1.65c0.03-0.24-0.09-0.59-0.26-0.75c-0.68-0.63-1.24-1.42-2.45-0.76c-0.7,0.39-1.54-0.09-2.02-0.79
	c-0.28-0.4-0.55-0.5-1.01-0.39c-1.02,0.26-2.05,0.45-3.06,0.74c-0.27,0.08-0.47,0.39-0.71,0.59c0.21,0.24,0.37,0.55,0.63,0.69
	c0.54,0.3,1.13,0.5,1.7,0.75c0.65,0.29,1.23,0.62,1.99,0.04c0.61-0.46,1.56,0.03,1.83,0.76c0.28,0.74-0.11,1.59-0.84,1.85
	c-0.74,0.27-1.68-0.13-1.79-0.9c-0.11-0.77-0.55-1.03-1.16-1.25c-0.43-0.16-0.86-0.33-1.26-0.54c-0.74-0.38-1.36-0.59-2.14,0.13
	c-0.8,0.73-2.14,0.36-2.77-0.53C7.87,27.9,8.02,26.61,9,25.97c0.55-0.36,0.6-0.73,0.49-1.27c-0.19-0.95-0.37-1.9-0.51-2.86
	c-0.08-0.51-0.33-0.81-0.82-0.77c-0.32,0.03-0.7,0.14-0.92,0.35c-0.47,0.45-0.75,0.94-0.44,1.7c0.31,0.75-0.37,1.58-1.18,1.69
	c-0.76,0.11-1.5-0.5-1.57-1.28c-0.08-0.8,0.51-1.6,1.3-1.5c1.01,0.12,1.27-0.62,1.69-1.2c0.09-0.12,0.01-0.39-0.05-0.58
	c-0.09-0.31-0.27-0.59-0.34-0.9c-0.22-0.99-1.07-1.27-1.86-0.59c-0.64,0.55-1.43,0.62-2.08,0.18c-0.6-0.41-0.87-1.17-0.64-1.84
	c0.26-0.75,0.79-1.13,1.58-1.14c0.81-0.01,1.45,0.46,1.58,1.32c0.11,0.68,0.59,0.76,1.03,0.79c0.29,0.02,0.71-0.21,0.87-0.46
	c0.16-0.24,0.18-0.7,0.07-0.97c-0.38-0.89-0.86-1.73-1.28-2.61c-0.18-0.39-0.4-0.53-0.87-0.51c-1.29,0.07-2.28-0.87-2.27-2.08
	c0.01-1.22,1-2.14,2.3-2.04C5.6,9.44,5.89,9.29,6.1,8.85C6.28,8.49,6.49,8.14,6.7,7.8c0.38-0.6,0.67-1.12,0.17-1.89
	c-0.4-0.62-0.14-1.38,0.48-1.86c0.59-0.46,1.25-0.49,1.88-0.1c0.68,0.42,0.89,1.07,0.7,1.82C9.76,6.49,9.26,6.97,8.5,6.94
	C7.85,6.91,7.52,7.19,7.26,7.72C6.99,8.27,6.63,8.79,6.37,9.34C6.29,9.52,6.3,9.86,6.42,9.97c0.15,0.15,0.5,0.26,0.68,0.18
	c1.17-0.48,2.32-1.01,3.45-1.56c0.18-0.09,0.36-0.41,0.36-0.62c0-1.03,0.43-1.71,1.35-2.2C12.55,5.62,12.68,5.16,12.88,4.84z"/>
</svg>
