<?xml version="1.0" encoding="utf-8"?>
<!-- Generator: Adobe Illustrator 26.5.0, SVG Export Plug-In . SVG Version: 6.00 Build 0)  -->
<svg version="1.1" id="Layer_1" xmlns="http://www.w3.org/2000/svg" xmlns:xlink="http://www.w3.org/1999/xlink" x="0px" y="0px"
	 viewBox="0 0 259.5 120.88" style="enable-background:new 0 0 259.5 120.88;" xml:space="preserve">
<style type="text/css">
	.st0{fill:#FFFFFF;}
	.st1{fill:#EF4444;}
</style>
<path class="st0" d="M36.2,26.53c-3.66-4.6-9.29-7.45-15.83-7.45C8.78,19.08,0,28.01,0,39.77c0,6.44,2.64,12.04,6.93,15.77
	c3.54,3.1,8.21,4.92,13.44,4.92c11.59,0,20.29-8.94,20.29-20.69C40.66,34.65,39.01,30.07,36.2,26.53z M20.37,53.7
	c-3.34,0-6.3-1.07-8.58-2.98c-2.93-2.45-4.71-6.28-4.71-10.95c0-8.3,5.64-14.02,13.29-14.02c4.61,0,8.55,2.13,10.9,5.67
	c1.52,2.27,2.39,5.11,2.39,8.35C33.66,48.06,27.94,53.7,20.37,53.7z"/>
<path class="st0" d="M45.25,58.37v-37.2c0-0.72,0.4-1.13,1.13-1.13h4.75c0.81,0,1.13,0.32,1.13,1.21l0.24,4.99
	c2.25-4.03,6.44-7.17,12.8-7.17c8.45,0,14.33,5.72,14.33,16.1v23.19c0,0.72-0.4,1.13-1.13,1.13h-5.07c-0.72,0-1.05-0.4-1.05-1.13
	V36.31c0-6.6-3.38-10.55-9.42-10.55S52.5,29.7,52.5,36.31v22.06c0,0.72-0.32,1.13-1.05,1.13h-5.07
	C45.65,59.49,45.25,59.09,45.25,58.37z"/>
<path class="st0" d="M84.22,39.69c0-11.75,8.86-20.61,20.61-20.61c6.28,0,11.51,2.58,14.89,6.68c0.48,0.64,0.48,1.21,0,1.69
	l-2.82,2.66c-0.64,0.72-1.37,0.48-1.85,0c-2.42-2.58-5.31-4.35-9.98-4.35c-7.97,0-13.77,5.8-13.77,13.93
	c0,8.13,5.8,14.01,13.93,14.01c4.59,0,7.49-1.69,9.82-4.19c0.56-0.56,1.29-0.81,1.93-0.16l2.82,2.74c0.48,0.48,0.48,1.05,0,1.61
	c-3.38,4.19-8.61,6.76-14.97,6.76C93.08,60.46,84.22,51.52,84.22,39.69z"/>
<path class="st0" d="M124.8,58.37V3.05c0-0.72,0.4-1.13,1.13-1.13H131c0.72,0,1.05,0.4,1.05,1.13v23.19
	c2.25-4.03,6.44-7.17,12.8-7.17c8.45,0,14.33,5.72,14.33,16.1v23.19c0,0.72-0.4,1.13-1.13,1.13h-5.07c-0.72,0-1.05-0.4-1.05-1.13
	V36.31c0-6.6-3.38-10.55-9.42-10.55s-10.47,3.95-10.47,10.55v22.06c0,0.72-0.32,1.13-1.05,1.13h-5.07
	C125.2,59.49,124.8,59.09,124.8,58.37z"/>
<path class="st0" d="M163.77,39.77c0-11.75,7.89-20.69,19.24-20.69c6.76,0,11.75,3.14,14.57,8.13l0.16-6.04
	c0-0.72,0.32-1.13,1.05-1.13h4.67c0.72,0,1.13,0.4,1.13,1.13v37.2c0,0.72-0.4,1.13-1.13,1.13h-4.67c-0.72,0-1.05-0.4-1.05-1.13
	l-0.16-5.88c-2.9,4.91-7.81,7.97-14.57,7.97C171.66,60.46,163.77,51.6,163.77,39.77z M184.3,53.78c7.73,0,13.12-5.56,13.12-13.93
	c0-8.37-5.39-14.09-13.12-14.09c-7.81,0-13.45,5.72-13.45,14.01C170.85,48.14,176.49,53.78,184.3,53.78z"/>
<path class="st0" d="M210.55,6.36c0-2.42,1.93-4.35,4.35-4.35c2.42,0,4.27,1.93,4.27,4.35c0,2.42-1.85,4.35-4.27,4.35
	C212.48,10.7,210.55,8.77,210.55,6.36z M211.27,21.17c0-0.72,0.32-1.13,1.05-1.13h5.07c0.72,0,1.13,0.4,1.13,1.13v37.2
	c0,0.72-0.4,1.13-1.13,1.13h-5.07c-0.72,0-1.05-0.4-1.05-1.13V21.17z"/>
<path class="st0" d="M225.12,58.37v-37.2c0-0.72,0.4-1.13,1.13-1.13H231c0.8,0,1.13,0.32,1.13,1.21l0.24,4.99
	c2.25-4.03,6.44-7.17,12.8-7.17c8.45,0,14.33,5.72,14.33,16.1v23.19c0,0.72-0.4,1.13-1.13,1.13h-5.07c-0.72,0-1.05-0.4-1.05-1.13
	V36.31c0-6.6-3.38-10.55-9.42-10.55s-10.47,3.95-10.47,10.55v22.06c0,0.72-0.32,1.13-1.05,1.13h-5.07
	C225.52,59.49,225.12,59.09,225.12,58.37z"/>
<path class="st1" d="M45.59,102.04c-0.52-0.59-0.45-1.19,0-1.93l1.48-2.08c0.52-0.67,1.19-0.67,1.78-0.07
	c2.45,2.37,5.12,3.93,8.75,3.93c3.78,0,6.38-1.63,6.38-4.97c0-2.97-1.93-4.3-5.19-5.64l-4.38-1.85c-4.45-1.85-8.08-4.67-8.08-9.79
	c0-6.3,5.34-10.09,11.57-10.09c4.3,0,8.31,1.78,11.05,5.19c0.45,0.52,0.3,1.11-0.07,1.56l-1.78,2.08c-0.59,0.74-1.11,0.67-1.78,0
	c-2.3-2.3-4.6-3.34-7.12-3.34c-3.04,0-5.49,1.56-5.49,4.45c0,3.04,2.22,4.23,5.49,5.49l4.01,1.63c4.67,1.93,8.46,4.82,8.38,10.46
	c0,6.9-5.93,10.61-12.68,10.61C51.97,107.68,47.89,104.86,45.59,102.04z"/>
<path class="st1" d="M73.54,92.77V71.48c0-0.67,0.37-1.04,1.04-1.04h4.67c0.67,0,0.96,0.37,0.96,1.04v20.32
	c0,6.08,3.12,9.64,8.68,9.64s9.64-3.56,9.64-9.64V71.48c0-0.67,0.3-1.04,0.96-1.04h4.67c0.67,0,1.04,0.37,1.04,1.04v34.27
	c0,0.67-0.37,1.04-1.04,1.04H99.8c-0.74,0-0.96-0.3-1.04-1.11l-0.22-4.6c-2.08,3.71-5.93,6.6-11.79,6.6
	C78.96,107.68,73.54,102.41,73.54,92.77z"/>
<path class="st1" d="M109.59,105.75V71.48c0-0.67,0.37-1.04,1.04-1.04H115c0.74,0,1.04,0.3,1.04,1.11l0.22,4.3
	c1.33-3.56,3.78-6.3,8.23-6.3c1.56,0,2.67,0.3,3.34,0.74c0.45,0.37,0.59,0.67,0.59,1.34v3.71c0,0.82-0.52,0.96-1.34,0.74
	c-0.96-0.22-1.85-0.37-2.67-0.37c-6.08,0-8.16,5.12-8.16,9.49v20.55c0,0.67-0.3,1.04-0.96,1.04h-4.67
	C109.96,106.79,109.59,106.42,109.59,105.75z"/>
<path class="st1" d="M143.56,105.9l-13.57-34.19c-0.3-0.82,0-1.26,0.82-1.26h4.75c0.59,0,0.96,0.3,1.19,0.89l10.53,27.89
	l10.53-27.89c0.22-0.59,0.59-0.89,1.19-0.89h4.75c0.82,0,1.11,0.45,0.82,1.26l-13.57,34.19c-0.22,0.59-0.74,0.89-1.33,0.89h-4.75
	C144.3,106.79,143.78,106.49,143.56,105.9z"/>
<path class="st1" d="M164.11,88.47c0-10.68,7.49-18.91,18.39-18.91c10.83,0,17.13,8.23,17.13,17.21c0,2.97-0.59,4.3-3.04,4.3h-25.96
	c0.82,6.53,5.49,11.13,13.5,11.13c4.01,0,7.05-1.11,9.87-3.12c0.44-0.3,0.89-0.3,1.19,0.07l1.63,2.3c0.52,0.59,0.3,1.04-0.3,1.56
	c-3.19,3.11-7.86,4.67-12.98,4.67C171.67,107.68,164.11,99.15,164.11,88.47z M193.7,86.1c-0.37-6.53-4.67-10.83-11.2-10.83
	c-6.53,0-11.13,4.08-11.87,10.83H193.7z"/>
<path class="st1" d="M208.02,119.77l5.12-12.83L199.2,71.71c-0.3-0.82,0-1.26,0.82-1.26h4.75c0.59,0,0.96,0.3,1.19,0.89l10.53,27.89
	l10.53-27.89c0.22-0.59,0.67-0.89,1.26-0.89h4.67c0.82,0,1.19,0.45,0.89,1.26l-19.21,48.29c-0.22,0.59-0.67,0.89-1.26,0.89h-4.6
	C208.02,120.88,207.72,120.44,208.02,119.77z"/>
<path class="st1" d="M234.5,102.04c-0.52-0.59-0.45-1.19,0-1.93l1.48-2.08c0.52-0.67,1.19-0.67,1.78-0.07
	c2.45,2.37,5.12,3.93,8.75,3.93c3.78,0,6.38-1.63,6.38-4.97c0-2.97-1.93-4.3-5.19-5.64l-4.38-1.85c-4.45-1.85-8.08-4.67-8.08-9.79
	c0-6.3,5.34-10.09,11.57-10.09c4.3,0,8.31,1.78,11.05,5.19c0.45,0.52,0.3,1.11-0.07,1.56l-1.78,2.08c-0.59,0.74-1.11,0.67-1.78,0
	c-2.3-2.3-4.6-3.34-7.12-3.34c-3.04,0-5.49,1.56-5.49,4.45c0,3.04,2.23,4.23,5.49,5.49l4,1.63c4.67,1.93,8.46,4.82,8.38,10.46
	c0,6.9-5.93,10.61-12.68,10.61C240.88,107.68,236.8,104.86,234.5,102.04z"/>
<path class="st1" d="M40.66,39.77c0,11.75-8.69,20.69-20.29,20.69c-5.23,0-9.91-1.82-13.44-4.92l4.87-4.82l19.48-19.3l4.93-4.89
	C39.01,30.07,40.66,34.65,40.66,39.77z"/>
</svg>
