<?xml version="1.0" encoding="UTF-8"?>
<svg id="Layer_1" data-name="Layer 1" xmlns="http://www.w3.org/2000/svg" viewBox="0 0 512 70.68">
  <defs>
    <style>
      .cls-1 {
        fill: #fff;
      }

      .cls-2 {
        fill: #10b981;
      }
    </style>
  </defs>
  <g>
    <path class="cls-1" d="M44.89,54.98V19.75c0-.69,.38-1.15,1.07-1.15h5.82c.69,0,1.07,.31,1.07,1.23l.31,4.6c2.14-3.83,5.9-6.74,11.79-6.74,7.97,0,13.63,5.51,13.63,15.39v21.91c0,.69-.46,1.15-1.15,1.15h-6.05c-.69,0-1.07-.46-1.07-1.15v-20.38c0-5.9-2.91-9.27-8.19-9.27s-8.96,3.37-8.96,9.27v20.37c0,.69-.38,1.15-1.07,1.15h-6.13c-.69,0-1.07-.46-1.07-1.15Z"/>
    <path class="cls-1" d="M83.8,37.29c0-11.18,8.35-19.61,19.53-19.61,6.13,0,11.1,2.53,14.32,6.51,.46,.61,.46,1.15,0,1.61l-3.45,3.29c-.61,.61-1.38,.46-1.84-.08-2.22-2.22-4.75-3.68-8.65-3.68-7.05,0-11.95,5.05-11.95,11.95s4.9,12.1,12.1,12.1c3.83,0,6.36-1.45,8.5-3.68,.54-.54,1.3-.69,1.91-.08l3.45,3.29c.46,.46,.46,1,0,1.61-3.22,3.98-8.19,6.51-14.24,6.51-11.26,.02-19.68-8.48-19.68-19.74Z"/>
    <path class="cls-1" d="M123.31,54.98V2.52c0-.69,.38-1.15,1.07-1.15h6.13c.69,0,1.07,.46,1.07,1.15V24.42c2.14-3.83,5.9-6.74,11.79-6.74,7.97,0,13.63,5.51,13.63,15.39v21.91c0,.69-.46,1.15-1.15,1.15h-6.05c-.69,0-1.07-.46-1.07-1.15v-20.37c0-5.9-2.91-9.27-8.19-9.27s-8.96,3.37-8.96,9.27v20.37c0,.69-.38,1.15-1.07,1.15h-6.13c-.68,0-1.07-.46-1.07-1.15Z"/>
    <path class="cls-1" d="M162.22,37.36c0-11.11,7.35-19.68,18.07-19.68,6.2,0,10.65,2.76,13.25,7.12l.15-5.06c0-.69,.38-1.15,1.07-1.15h5.59c.69,0,1.07,.46,1.07,1.15V54.97c0,.69-.38,1.15-1.07,1.15h-5.59c-.69,0-1.07-.46-1.07-1.15l-.15-4.97c-2.68,4.37-7.12,7.05-13.25,7.05-10.72,0-18.07-8.5-18.07-19.69Zm19.68,12.11c6.66,0,11.33-4.82,11.33-12.02s-4.67-12.18-11.33-12.18-11.64,4.9-11.64,12.1,4.91,12.1,11.64,12.1Z"/>
    <path class="cls-1" d="M208.02,5.73c0-2.6,2.07-4.75,4.82-4.75s4.75,2.14,4.75,4.75-2.07,4.83-4.75,4.83c-2.75,0-4.82-2.15-4.82-4.83Zm.61,14.02c0-.69,.38-1.15,1.07-1.15h6.2c.69,0,1.07,.46,1.07,1.15V54.98c0,.69-.38,1.15-1.07,1.15h-6.2c-.69,0-1.07-.46-1.07-1.15V19.75Z"/>
    <path class="cls-1" d="M224.18,54.98V19.75c0-.69,.38-1.15,1.07-1.15h5.82c.69,0,1.07,.31,1.07,1.23l.31,4.6c2.14-3.83,5.9-6.74,11.79-6.74,7.97,0,13.63,5.51,13.63,15.39v21.91c0,.69-.46,1.15-1.15,1.15h-6.05c-.69,0-1.07-.46-1.07-1.15v-20.38c0-5.9-2.91-9.27-8.19-9.27s-8.96,3.37-8.96,9.27v20.37c0,.69-.38,1.15-1.07,1.15h-6.13c-.69,0-1.07-.46-1.07-1.15Z"/>
    <path class="cls-2" d="M275.8,51.07c-.46-.54-.46-1.3,.08-2.07l1.99-2.76c.54-.77,1.23-.69,1.84-.15,2.76,2.37,5.44,3.91,8.88,3.91s5.74-1.38,5.74-4.37c0-2.6-1.76-3.83-4.83-5.13l-4.59-1.84c-4.75-1.91-8.35-4.98-8.35-10.26,0-6.74,5.74-10.72,12.41-10.72,4.59,0,8.88,1.91,11.79,5.51,.46,.54,.38,1.15-.08,1.61l-2.37,2.83c-.61,.69-1.15,.61-1.84,0-2.37-2.22-4.67-3.29-7.12-3.29-2.91,0-4.9,1.45-4.9,3.98s1.99,3.75,4.9,4.9l4.52,1.84c4.82,1.91,8.65,5.05,8.65,10.8-.08,7.35-6.36,11.18-13.55,11.18-6.12,0-10.56-2.83-13.17-5.97Z"/>
    <path class="cls-2" d="M308.12,41.65V19.75c0-.69,.38-1.15,1.07-1.15h6.13c.69,0,1.07,.46,1.07,1.15v20.37c0,5.9,2.91,9.27,8.19,9.27s8.96-3.37,8.96-9.27V19.75c0-.69,.38-1.15,1.07-1.15h6.05c.69,0,1.15,.46,1.15,1.15V54.98c0,.69-.46,1.15-1.15,1.15h-5.74c-.77,0-1.07-.31-1.15-1.23l-.23-4.6c-2.14,3.83-5.97,6.74-11.87,6.74-7.96,0-13.55-5.51-13.55-15.39Z"/>
    <path class="cls-2" d="M348.94,54.98V19.75c0-.69,.38-1.15,1.07-1.15h5.82c.69,0,1.07,.31,1.07,1.23l.23,4.52c1.38-3.75,3.83-6.66,8.35-6.66,1.69,0,2.83,.38,3.45,.84,.54,.38,.69,.77,.69,1.45v4.9c0,.84-.54,1.07-1.46,.84-.92-.31-1.76-.38-2.76-.38-5.9,0-8.19,4.6-8.19,9.42v20.22c0,.69-.38,1.15-1.07,1.15h-6.13c-.68,0-1.07-.46-1.07-1.15Z"/>
    <path class="cls-2" d="M386.17,55.21l-14.02-35.31c-.31-.84,.08-1.3,.92-1.3h6.2c.61,0,1.07,.31,1.3,.92l10.11,27.19,10.03-27.19c.23-.61,.77-.92,1.38-.92h6.13c.84,0,1.23,.46,.92,1.3l-14.01,35.31c-.23,.61-.77,.92-1.38,.92h-6.2c-.62,0-1.15-.31-1.38-.92Z"/>
    <path class="cls-2" d="M409.53,37.21c0-11.03,7.66-19.53,19.07-19.53s17.77,8.5,17.77,17.84c0,3.29-.69,4.9-3.52,4.9h-25.27c1,5.97,5.44,9.96,12.87,9.96,3.68,0,6.66-.92,9.65-2.91,.46-.31,.92-.23,1.23,.23l2.15,2.91c.46,.61,.31,1.07-.31,1.68-3.29,3.22-8.12,4.75-13.4,4.75-12.28,.01-20.24-8.65-20.24-19.83Zm29.48-2.76c-.46-6.13-4.52-9.8-10.42-9.8s-10.26,3.6-11.1,9.8h21.52Z"/>
    <path class="cls-2" d="M455.86,69.45l5.36-13.25-14.48-36.3c-.31-.84,.08-1.3,.92-1.3h6.2c.61,0,1.07,.31,1.3,.92l10.11,27.11,10.19-27.11c.23-.61,.69-.92,1.3-.92h6.2c.84,0,1.15,.46,.84,1.3l-19.76,49.86c-.23,.61-.77,.92-1.38,.92h-5.97c-.83,0-1.21-.46-.83-1.23Z"/>
    <path class="cls-2" d="M485.27,51.07c-.46-.54-.46-1.3,.08-2.07l1.99-2.76c.54-.77,1.23-.69,1.84-.15,2.76,2.37,5.44,3.91,8.88,3.91s5.74-1.38,5.74-4.37c0-2.6-1.76-3.83-4.83-5.13l-4.59-1.84c-4.75-1.91-8.35-4.98-8.35-10.26,0-6.74,5.74-10.72,12.41-10.72,4.59,0,8.88,1.91,11.79,5.51,.46,.54,.38,1.15-.08,1.61l-2.37,2.83c-.61,.69-1.15,.61-1.84,0-2.37-2.22-4.67-3.29-7.12-3.29-2.91,0-4.9,1.45-4.9,3.98s1.99,3.75,4.9,4.9l4.52,1.84c4.82,1.91,8.65,5.05,8.65,10.8-.08,7.35-6.36,11.18-13.55,11.18-6.12,0-10.56-2.83-13.17-5.97Z"/>
  </g>
  <path class="cls-1" d="M29.92,26.24c5.86,5.86,5.86,15.41,0,21.27s-15.4,5.86-21.27,0-5.86-15.41,0-21.27c5.86-5.86,15.41-5.87,21.27,0m2.98-2.98c-7.52-7.52-19.71-7.52-27.23,0-7.52,7.52-7.52,19.71,0,27.23,7.52,7.52,19.71,7.52,27.23,0s7.52-19.71,0-27.23h0Z"/>
  <path class="cls-2" d="M32.9,23.26s-.05-.04-.07-.06L5.61,50.42s.04,.05,.06,.07c7.52,7.52,19.71,7.52,27.23,0,7.52-7.52,7.52-19.71,0-27.23Z"/>
</svg>