<?xml version="1.0" encoding="utf-8"?>
<!-- Generator: Adobe Illustrator 26.5.0, SVG Export Plug-In . SVG Version: 6.00 Build 0)  -->
<svg version="1.1" id="Layer_1" xmlns="http://www.w3.org/2000/svg" xmlns:xlink="http://www.w3.org/1999/xlink" x="0px" y="0px"
	 viewBox="0 0 512 192" style="enable-background:new 0 0 512 192;" xml:space="preserve">
<style type="text/css">
	.st0{fill:#FFFFFF;}
	.st1{fill:#10B981;}
</style>
<g>
	<g>
		<path class="st0" d="M44.89,115.15V79.92c0-0.69,0.38-1.15,1.07-1.15h5.82c0.69,0,1.07,0.31,1.07,1.23l0.31,4.6
			c2.14-3.83,5.9-6.74,11.79-6.74c7.97,0,13.63,5.51,13.63,15.39v21.91c0,0.69-0.46,1.15-1.15,1.15h-6.05
			c-0.69,0-1.07-0.46-1.07-1.15V94.77c0-5.9-2.91-9.27-8.19-9.27s-8.96,3.37-8.96,9.27v20.37c0,0.69-0.38,1.15-1.07,1.15h-6.13
			C45.27,116.3,44.89,115.84,44.89,115.15z"/>
		<path class="st0" d="M83.8,97.46c0-11.18,8.35-19.61,19.53-19.61c6.13,0,11.1,2.53,14.32,6.51c0.46,0.61,0.46,1.15,0,1.61
			l-3.45,3.29c-0.61,0.61-1.38,0.46-1.84-0.08c-2.22-2.22-4.75-3.68-8.65-3.68c-7.05,0-11.95,5.05-11.95,11.95
			c0,6.89,4.9,12.1,12.1,12.1c3.83,0,6.36-1.45,8.5-3.68c0.54-0.54,1.3-0.69,1.91-0.08l3.45,3.29c0.46,0.46,0.46,1,0,1.61
			c-3.22,3.98-8.19,6.51-14.24,6.51C92.22,117.21,83.8,108.71,83.8,97.46z"/>
		<path class="st0" d="M123.31,115.15V62.68c0-0.69,0.38-1.15,1.07-1.15h6.13c0.69,0,1.07,0.46,1.07,1.15v21.9
			c2.14-3.83,5.9-6.74,11.79-6.74c7.97,0,13.63,5.51,13.63,15.39v21.91c0,0.69-0.46,1.15-1.15,1.15h-6.05
			c-0.69,0-1.07-0.46-1.07-1.15V94.77c0-5.9-2.91-9.27-8.19-9.27c-5.28,0-8.96,3.37-8.96,9.27v20.37c0,0.69-0.38,1.15-1.07,1.15
			h-6.13C123.7,116.3,123.31,115.84,123.31,115.15z"/>
		<path class="st0" d="M162.22,97.53c0-11.11,7.35-19.68,18.07-19.68c6.2,0,10.65,2.76,13.25,7.12l0.15-5.06
			c0-0.69,0.38-1.15,1.07-1.15h5.59c0.69,0,1.07,0.46,1.07,1.15v35.23c0,0.69-0.38,1.15-1.07,1.15h-5.59
			c-0.69,0-1.07-0.46-1.07-1.15l-0.15-4.98c-2.68,4.37-7.12,7.05-13.25,7.05C169.57,117.21,162.22,108.71,162.22,97.53z
			 M181.9,109.63c6.66,0,11.33-4.82,11.33-12.02c0-7.28-4.67-12.18-11.33-12.18c-6.74,0-11.64,4.9-11.64,12.1
			C170.26,104.81,175.17,109.63,181.9,109.63z"/>
		<path class="st0" d="M208.02,65.9c0-2.6,2.07-4.75,4.82-4.75c2.68,0,4.75,2.14,4.75,4.75c0,2.68-2.07,4.83-4.75,4.83
			C210.09,70.73,208.02,68.58,208.02,65.9z M208.63,79.92c0-0.69,0.38-1.15,1.07-1.15h6.2c0.69,0,1.07,0.46,1.07,1.15v35.23
			c0,0.69-0.38,1.15-1.07,1.15h-6.2c-0.69,0-1.07-0.46-1.07-1.15V79.92z"/>
		<path class="st0" d="M224.18,115.15V79.92c0-0.69,0.38-1.15,1.07-1.15h5.82c0.69,0,1.07,0.31,1.07,1.23l0.31,4.6
			c2.14-3.83,5.9-6.74,11.79-6.74c7.97,0,13.63,5.51,13.63,15.39v21.91c0,0.69-0.46,1.15-1.15,1.15h-6.05
			c-0.69,0-1.07-0.46-1.07-1.15V94.77c0-5.9-2.91-9.27-8.19-9.27s-8.96,3.37-8.96,9.27v20.37c0,0.69-0.38,1.15-1.07,1.15h-6.13
			C224.56,116.3,224.18,115.84,224.18,115.15z"/>
		<path class="st1" d="M275.8,111.24c-0.46-0.54-0.46-1.3,0.08-2.07l1.99-2.76c0.54-0.77,1.23-0.69,1.84-0.15
			c2.76,2.37,5.44,3.91,8.88,3.91c3.37,0,5.74-1.38,5.74-4.37c0-2.6-1.76-3.83-4.83-5.13l-4.59-1.84
			c-4.75-1.91-8.35-4.98-8.35-10.26c0-6.74,5.74-10.72,12.41-10.72c4.59,0,8.88,1.91,11.79,5.51c0.46,0.54,0.38,1.15-0.08,1.61
			l-2.37,2.83c-0.61,0.69-1.15,0.61-1.84,0c-2.37-2.22-4.67-3.29-7.12-3.29c-2.91,0-4.9,1.45-4.9,3.98c0,2.6,1.99,3.75,4.9,4.9
			l4.52,1.84c4.82,1.91,8.65,5.05,8.65,10.8c-0.08,7.35-6.36,11.18-13.55,11.18C282.85,117.21,278.41,114.38,275.8,111.24z"/>
		<path class="st1" d="M308.12,101.82V79.92c0-0.69,0.38-1.15,1.07-1.15h6.13c0.69,0,1.07,0.46,1.07,1.15v20.37
			c0,5.9,2.91,9.27,8.19,9.27c5.21,0,8.96-3.37,8.96-9.27V79.92c0-0.69,0.38-1.15,1.07-1.15h6.05c0.69,0,1.15,0.46,1.15,1.15v35.23
			c0,0.69-0.46,1.15-1.15,1.15h-5.74c-0.77,0-1.07-0.31-1.15-1.23l-0.23-4.6c-2.14,3.83-5.97,6.74-11.87,6.74
			C313.71,117.21,308.12,111.7,308.12,101.82z"/>
		<path class="st1" d="M348.94,115.15V79.92c0-0.69,0.38-1.15,1.07-1.15h5.82c0.69,0,1.07,0.31,1.07,1.23l0.23,4.52
			c1.38-3.75,3.83-6.66,8.35-6.66c1.69,0,2.83,0.38,3.45,0.84c0.54,0.38,0.69,0.77,0.69,1.45v4.9c0,0.84-0.54,1.07-1.46,0.84
			c-0.92-0.31-1.76-0.38-2.76-0.38c-5.9,0-8.19,4.6-8.19,9.42v20.22c0,0.69-0.38,1.15-1.07,1.15h-6.13
			C349.33,116.3,348.94,115.84,348.94,115.15z"/>
		<path class="st1" d="M386.17,115.38l-14.02-35.31c-0.31-0.84,0.08-1.3,0.92-1.3h6.2c0.61,0,1.07,0.31,1.3,0.92l10.11,27.19
			l10.03-27.19c0.23-0.61,0.77-0.92,1.38-0.92h6.13c0.84,0,1.23,0.46,0.92,1.3l-14.01,35.31c-0.23,0.61-0.77,0.92-1.38,0.92h-6.2
			C386.93,116.3,386.4,115.99,386.17,115.38z"/>
		<path class="st1" d="M409.53,97.38c0-11.03,7.66-19.53,19.07-19.53c11.26,0,17.77,8.5,17.77,17.84c0,3.29-0.69,4.9-3.52,4.9
			h-25.27c1,5.97,5.44,9.96,12.87,9.96c3.68,0,6.66-0.92,9.65-2.91c0.46-0.31,0.92-0.23,1.23,0.23l2.15,2.91
			c0.46,0.61,0.31,1.07-0.31,1.68c-3.29,3.22-8.12,4.75-13.4,4.75C417.49,117.21,409.53,108.56,409.53,97.38z M439.01,94.62
			c-0.46-6.13-4.52-9.8-10.42-9.8s-10.26,3.6-11.1,9.8H439.01z"/>
		<path class="st1" d="M455.86,129.62l5.36-13.25l-14.48-36.3c-0.31-0.84,0.08-1.3,0.92-1.3h6.2c0.61,0,1.07,0.31,1.3,0.92
			l10.11,27.11l10.19-27.11c0.23-0.61,0.69-0.92,1.3-0.92h6.2c0.84,0,1.15,0.46,0.84,1.3l-19.76,49.86
			c-0.23,0.61-0.77,0.92-1.38,0.92h-5.97C455.86,130.85,455.48,130.39,455.86,129.62z"/>
		<path class="st1" d="M485.27,111.24c-0.46-0.54-0.46-1.3,0.08-2.07l1.99-2.76c0.54-0.77,1.23-0.69,1.84-0.15
			c2.76,2.37,5.44,3.91,8.88,3.91c3.37,0,5.74-1.38,5.74-4.37c0-2.6-1.76-3.83-4.83-5.13l-4.59-1.84
			c-4.75-1.91-8.35-4.98-8.35-10.26c0-6.74,5.74-10.72,12.41-10.72c4.59,0,8.88,1.91,11.79,5.51c0.46,0.54,0.38,1.15-0.08,1.61
			l-2.37,2.83c-0.61,0.69-1.15,0.61-1.84,0c-2.37-2.22-4.67-3.29-7.12-3.29c-2.91,0-4.9,1.45-4.9,3.98c0,2.6,1.99,3.75,4.9,4.9
			l4.52,1.84c4.82,1.91,8.65,5.05,8.65,10.8c-0.08,7.35-6.36,11.18-13.55,11.18C492.32,117.21,487.88,114.38,485.27,111.24z"/>
	</g>
	<g>
		<g>
			<path class="st0" d="M29.92,86.41c5.86,5.86,5.86,15.41,0,21.27c-5.86,5.86-15.4,5.86-21.27,0s-5.86-15.41,0-21.27
				C14.51,80.54,24.06,80.54,29.92,86.41 M32.9,83.42c-7.52-7.52-19.71-7.52-27.23,0c-7.52,7.52-7.52,19.71,0,27.23
				c7.52,7.52,19.71,7.52,27.23,0C40.42,103.14,40.42,90.94,32.9,83.42L32.9,83.42z"/>
		</g>
	</g>
	<g>
		<path class="st1" d="M32.9,83.42c-0.02-0.02-0.05-0.04-0.07-0.06L5.61,110.59c0.02,0.02,0.04,0.05,0.06,0.07
			c7.52,7.52,19.71,7.52,27.23,0C40.42,103.14,40.42,90.94,32.9,83.42z"/>
	</g>
</g>
</svg>
