<?xml version="1.0" encoding="utf-8"?>
<!-- Generator: Adobe Illustrator 26.5.0, SVG Export Plug-In . SVG Version: 6.00 Build 0)  -->
<svg version="1.1" id="Layer_1" xmlns="http://www.w3.org/2000/svg" xmlns:xlink="http://www.w3.org/1999/xlink" x="0px" y="0px"
	 viewBox="0 0 256 256" style="enable-background:new 0 0 256 256;" xml:space="preserve">
<style type="text/css">
	.st0{fill:#94A3B8;}
</style>
<path class="st0" d="M0.3,42.9c0.6-2.1,1.1-4.2,1.8-6.2C6.7,22.9,19.7,13.1,34.4,13c62.3-0.1,124.6-0.1,186.9,0
	c18.9,0,34.1,15.2,34.2,33.9c0.2,46.5,0.4,93,0.3,139.5c0,20.9-14.8,35.2-35.9,35.2c-31.1,0-62.2-0.1-93.2-0.3
	c-4.1,0-7.3,0.9-10.5,3.4c-12.2,9.4-24.6,18.4-36.9,27.7c-4.3,3.3-8.8,4.8-13.9,2.1c-4.9-2.6-6.4-6.9-6.3-12.2c0.1-6.9,0-13.7,0-21
	H38.6c-20.7,0-32.4-9-37.8-28.9c-0.1-0.4-0.3-0.7-0.5-1C0.4,142,0.4,92.5,0.3,42.9L0.3,42.9L0.3,42.9z M116.7,124v2.3
	c0,7.5,4.1,12.6,10.7,13.1c6.3,0.5,11.1-3.8,12.5-10.9c0.2-1,1.2-2.1,2.1-2.6c19.3-9.4,26.5-30.8,16.4-48.6
	c-10-17.6-32.8-22.8-50.5-11.5c-5.6,3.6-7.4,10.2-4.3,15.6c3.1,5.4,9.8,7.3,15.7,4.3c1.6-0.8,3.2-1.7,4.9-2.3
	c6.8-2.2,13.3,1.2,15.1,7.9c1.7,6.1-2,12.3-8.6,14.1C120,108.4,116.7,112.8,116.7,124L116.7,124L116.7,124z M139,163.2
	c0-6.2-5.2-11.4-11.5-11.5c-6.2,0-11.5,5.1-11.6,11.3c-0.1,6.4,5.3,11.7,11.7,11.7C133.9,174.6,139,169.4,139,163.2L139,163.2
	L139,163.2z"/>
</svg>
