<?xml version="1.0" encoding="utf-8"?>
<!-- Generator: Adobe Illustrator 26.5.0, SVG Export Plug-In . SVG Version: 6.00 Build 0)  -->
<svg version="1.1" id="Layer_1" xmlns="http://www.w3.org/2000/svg" xmlns:xlink="http://www.w3.org/1999/xlink" x="0px" y="0px"
	 viewBox="0 0 256 256" style="enable-background:new 0 0 256 256;" xml:space="preserve">
<style type="text/css">
	.st0{fill:#94A3B8;}
</style>
<path class="st0" d="M14.57,66.03c0.51-1.85,0.95-3.72,1.56-5.54c4.07-12.3,15.64-21.03,28.67-21.05c55.34-0.1,110.67-0.13,166.01,0
	c16.78,0.04,30.26,13.53,30.35,30.26c0.21,41.45,0.31,82.9,0.24,124.36c-0.03,18.59-13.11,31.37-31.92,31.4
	c-27.61,0.04-55.22-0.05-82.83-0.26c-3.61-0.03-6.47,0.8-9.35,3.03c-10.83,8.35-21.88,16.41-32.78,24.67
	c-3.84,2.91-7.8,4.29-12.35,1.91c-4.37-2.29-5.71-6.14-5.6-10.84c0.13-6.12,0.04-12.24,0.04-18.69c-6.23,0-12.12,0-18.03,0
	c-18.35,0-28.78-8-33.58-25.74c-0.09-0.32-0.28-0.61-0.43-0.92C14.58,154.41,14.58,110.23,14.57,66.03L14.57,66.03z M117.95,138.38
	c0,0.68,0,1.37,0,2.05c0.03,6.69,3.69,11.21,9.48,11.68c5.6,0.46,9.83-3.35,11.11-9.75c0.17-0.87,1.07-1.89,1.9-2.29
	c17.12-8.36,23.56-27.42,14.58-43.35c-8.86-15.72-29.17-20.36-44.86-10.25c-5.01,3.23-6.6,9.08-3.8,13.95
	c2.8,4.86,8.68,6.47,13.97,3.84c1.42-0.71,2.82-1.52,4.32-2.01c6.05-1.96,11.78,1.07,13.45,7c1.54,5.45-1.82,10.96-7.61,12.56
	c-9.62,2.66-12.54,6.52-12.54,16.6L117.95,138.38z M137.79,173.29c-0.01-5.54-4.65-10.18-10.2-10.22
	c-5.54-0.04-10.24,4.56-10.32,10.09c-0.08,5.67,4.69,10.45,10.36,10.39C133.18,183.49,137.8,178.83,137.79,173.29L137.79,173.29z"/>
</svg>
