<?xml version="1.0" encoding="utf-8"?>
<!-- Generator: Adobe Illustrator 26.5.0, SVG Export Plug-In . SVG Version: 6.00 Build 0)  -->
<svg version="1.1" id="Layer_1" xmlns="http://www.w3.org/2000/svg" xmlns:xlink="http://www.w3.org/1999/xlink" x="0px" y="0px"
	 viewBox="0 0 256 256" style="enable-background:new 0 0 256 256;" xml:space="preserve">
<style type="text/css">
	.st0{fill:#f87171;}
</style>
<path class="st0" d="M127.7,256c-18.13,0-36.26,0-54.39,0c-6.64,0-8.76-2.1-8.76-8.67c0-18.73,0.04-37.46-0.08-56.18
	c-0.01-1.59-0.72-3.5-1.74-4.72c-18.01-21.49-36.09-42.91-54.2-64.31c-6.23-7.36-8.29-15.72-5.67-24.96
	c4.86-17.19,24.69-22.63,38.53-10.61c3.35,2.91,6.26,6.34,9.37,9.53c8.84,9.08,17.07,18.88,26.65,27.11
	c31.38,26.96,78.65,24.29,107.39-5.52c9.15-9.49,18.07-19.18,27.24-28.65c7.57-7.82,16.68-11.04,27.29-7.43
	c13.15,4.47,19.09,22.01,11.75,35.1c-2.53,4.52-6.18,8.45-9.55,12.46c-16.18,19.27-32.47,38.45-48.62,57.74
	c-0.9,1.07-1.36,2.83-1.37,4.27c-0.09,18.73-0.06,37.46-0.06,56.18c0,6.56-2.13,8.66-8.77,8.66c-18.33,0-36.66,0-54.99,0L127.7,256z
	"/>
<path class="st0" d="M127.95,129.05c-31.55-0.04-57.02-25.55-57-57.09c0.02-31.45,25.71-57.11,57.13-57.05
	c31.48,0.06,57.04,25.7,57,57.18C185.04,103.63,159.5,129.1,127.95,129.05L127.95,129.05z"/>
</svg>
