<?xml version="1.0" encoding="UTF-8"?>
<svg id="Layer_1" data-name="Layer 1" xmlns="http://www.w3.org/2000/svg" viewBox="0 0 256 256">
  <defs>
    <style>
      .cls-1 {
        fill: #f87171;
      }
    </style>
  </defs>
  <path class="cls-1" d="M127.69,256h-54.97c-6.71,0-8.85-2.12-8.85-8.76,0-18.93,.04-37.86-.08-56.78-.01-1.61-.73-3.54-1.76-4.77-18.2-21.72-36.48-43.37-54.78-65-6.3-7.44-8.38-15.89-5.73-25.23,4.91-17.37,24.95-22.87,38.94-10.72,3.39,2.94,6.33,6.41,9.47,9.63,8.93,9.18,17.25,19.08,26.94,27.4,31.72,27.25,79.49,24.55,108.54-5.58,9.25-9.59,18.26-19.39,27.53-28.96,7.65-7.9,16.86-11.16,27.58-7.51,13.29,4.52,19.29,22.25,11.88,35.48-2.56,4.57-6.25,8.54-9.65,12.59-16.35,19.48-32.82,38.86-49.14,58.36-.91,1.08-1.37,2.86-1.38,4.32-.09,18.93-.06,37.86-.06,56.78,0,6.63-2.15,8.75-8.86,8.75h-55.6Z"/>
  <path class="cls-1" d="M127.94,127.69c-31.89-.04-57.63-25.82-57.61-57.7,.02-31.79,25.99-57.72,57.74-57.66,31.82,.06,57.65,25.98,57.61,57.79-.04,31.88-25.85,57.62-57.74,57.57h0Z"/>
</svg>